<svg xmlns="http://www.w3.org/2000/svg" width="323.406" height="344.493" viewBox="0 0 323.406 334.493">
  <g id="Group_17" transform="translate(-591.276 -226.617)">
    <path id="Path_19" d="M595.792,348.778a4.517,4.517,0,0,1-4.516-4.516V265.928a39.355,39.355,0,0,1,39.311-39.311h78.335a4.516,4.516,0,1,1,0,9.033H630.587a30.312,30.312,0,0,0-30.278,30.278v78.334A4.517,4.517,0,0,1,595.792,348.778Z" transform="translate(0)" fill="#fff"/>
  </g>
  <g id="Group_18" transform="translate(201.244 0)">
    <path id="Path_19-2" d="M708.922,348.778a4.517,4.517,0,0,0,4.516-4.516V265.928a39.355,39.355,0,0,0-39.311-39.311H595.793a4.516,4.516,0,1,0,0,9.033h78.335a30.312,30.312,0,0,1,30.278,30.278v78.334A4.517,4.517,0,0,0,708.922,348.778Z" transform="translate(-591.276 -226.617)" fill="#fff"/>
  </g>
  <g id="Group_19" transform="translate(201.244 212.332)">
    <path id="Path_19-3" d="M708.922,226.617a4.517,4.517,0,0,1,4.516,4.516v78.334a39.355,39.355,0,0,1-39.311,39.311H595.793a4.516,4.516,0,1,1,0-9.033h78.335a30.312,30.312,0,0,0,30.278-30.278V231.133A4.517,4.517,0,0,1,708.922,226.617Z" transform="translate(-591.276 -226.617)" fill="#fff"/>
  </g>
  <g id="Group_20" transform="translate(0 212.332)">
    <path id="Path_19-4" d="M595.792,226.617a4.517,4.517,0,0,0-4.516,4.516v78.334a39.355,39.355,0,0,0,39.311,39.311h78.335a4.516,4.516,0,1,0,0-9.033H630.587a30.312,30.312,0,0,1-30.278-30.278V231.133A4.517,4.517,0,0,0,595.792,226.617Z" transform="translate(-591.276 -226.617)" fill="#fff"/>
  </g>
</svg>